<svg width="20" height="20" viewBox="0 0 16 16" fill="none" xmlns="http://www.w3.org/2000/svg">
<path d="M1.82142 8.49475H10.4902C10.7669 8.49475 10.9905 8.27075 10.9905 7.99475C10.9905 7.71875 10.7669 7.49475 10.4902 7.49475H1.85269L3.6626 5.686C3.85797 5.49075 3.85797 5.17425 3.6626 4.979C3.46722 4.78375 3.15052 4.78375 2.95514 4.979L0 8.01025L2.95514 11.0415C3.05296 11.1393 3.18079 11.188 3.30887 11.188C3.43695 11.188 3.56478 11.1393 3.6626 11.0415C3.85797 10.8463 3.85797 10.5298 3.6626 10.3345L1.82142 8.49475ZM14.9991 0H6.49364C5.94079 0 5.493 0.44775 5.493 1V5.5H6.50015V1.60975C6.50015 1.27575 6.77132 1.00475 7.10554 1.00475H14.3714C14.7059 1.00475 14.9768 1.27575 14.9768 1.60975L14.9926 14.3955C14.9926 14.7295 14.7216 15.0005 14.3872 15.0005H7.1058C6.77159 15.0005 6.50041 14.7295 6.50041 14.3955V10.4835L5.49327 10.4847V15C5.49327 15.5523 5.94106 16 6.49391 16H14.9991C15.552 16 16 15.5523 16 15V1C15.9998 0.44775 15.5517 0 14.9991 0Z" fill="#CCCCCC"/>
</svg>
